<?xml version="1.0" standalone="no"?>
<!DOCTYPE svg PUBLIC "-//W3C//DTD SVG 20010904//EN"
 "http://www.w3.org/TR/2001/REC-SVG-20010904/DTD/svg10.dtd">
<svg version="1.0" xmlns="http://www.w3.org/2000/svg"
 width="2000.000000pt" height="2000.000000pt" viewBox="0 0 2000.000000 2000.000000"
 preserveAspectRatio="xMidYMid meet">
<metadata>
Created by potrace 1.11, written by Peter Selinger 2001-2013
</metadata>
<g transform="translate(0.000000,2000.000000) scale(0.100000,-0.100000)"
fill="#000000" stroke="none">
<path d="M4795 17594 c-7 -7 -76 -115 -155 -241 -78 -125 -202 -325 -276 -443
-74 -118 -148 -237 -166 -265 -17 -27 -38 -61 -47 -75 -218 -344 -333 -528
-338 -542 -3 -10 -9 -18 -13 -18 -4 0 -12 -12 -19 -27 -7 -14 -27 -49 -45 -77
-18 -28 -73 -114 -121 -191 -48 -77 -96 -153 -107 -170 -10 -16 -72 -115 -138
-220 -298 -477 -338 -540 -378 -603 -23 -37 -45 -74 -49 -82 -4 -8 -9 -17 -13
-20 -3 -3 -25 -36 -48 -75 -23 -38 -160 -257 -303 -485 -144 -228 -266 -424
-273 -435 -6 -11 -13 -22 -16 -25 -3 -3 -10 -14 -16 -25 -13 -23 -525 -842
-559 -895 -34 -52 -265 -421 -284 -452 -14 -24 -58 -95 -136 -218 -12 -19 -38
-61 -58 -92 -21 -31 -37 -61 -37 -66 0 -11 5 -16 195 -226 11 -12 49 -56 85
-96 36 -41 86 -97 111 -124 25 -28 70 -78 100 -111 30 -34 90 -101 134 -150
44 -49 105 -116 135 -150 30 -33 75 -83 99 -110 24 -28 78 -88 121 -135 43
-47 90 -101 106 -120 16 -19 52 -59 80 -90 72 -77 91 -99 159 -176 33 -37 67
-75 75 -83 9 -9 47 -52 85 -96 39 -44 75 -84 81 -90 6 -5 49 -53 95 -105 46
-52 91 -102 99 -110 8 -9 49 -54 90 -100 41 -47 98 -110 125 -140 28 -31 82
-91 120 -134 82 -92 68 -77 175 -196 47 -52 87 -97 90 -100 3 -3 41 -45 85
-95 44 -49 85 -95 90 -101 6 -6 41 -45 79 -87 38 -43 78 -88 90 -100 28 -31
152 -170 174 -195 27 -30 164 -183 192 -213 14 -15 50 -55 80 -90 30 -35 78
-88 105 -118 28 -30 61 -66 73 -80 13 -14 43 -48 65 -74 23 -27 58 -65 77 -86
19 -20 62 -68 95 -105 33 -38 76 -86 95 -106 20 -21 49 -53 65 -72 17 -20 53
-60 80 -90 44 -48 164 -181 205 -228 21 -23 153 -171 165 -184 6 -6 87 -96
180 -201 186 -209 233 -261 255 -285 8 -9 49 -54 90 -100 41 -46 82 -91 90
-100 19 -20 152 -169 205 -229 48 -54 40 -45 141 -157 45 -49 94 -105 110
-124 16 -19 36 -42 44 -50 47 -50 132 -144 320 -355 68 -77 127 -142 130 -145
3 -3 41 -45 85 -95 44 -49 101 -112 126 -140 26 -27 65 -72 88 -99 24 -27 48
-54 54 -61 7 -6 44 -47 82 -90 39 -43 75 -83 80 -89 6 -6 66 -74 135 -151 68
-77 127 -142 130 -145 3 -3 43 -48 90 -100 46 -52 89 -100 95 -106 15 -16 139
-155 241 -269 49 -55 91 -102 94 -105 3 -3 43 -48 90 -100 47 -52 90 -100 95
-106 6 -6 44 -49 85 -95 41 -46 119 -133 174 -194 54 -60 113 -126 130 -145
32 -36 176 -197 233 -260 17 -19 40 -44 50 -56 10 -11 52 -58 93 -104 41 -46
80 -88 85 -94 86 -95 187 -209 215 -240 19 -22 56 -62 81 -90 25 -28 86 -96
135 -151 49 -55 93 -105 99 -111 5 -6 44 -49 85 -95 41 -46 97 -109 125 -139
27 -30 51 -57 53 -60 2 -3 19 13 39 35 19 22 67 76 107 120 39 43 93 104 120
135 28 30 55 60 60 66 6 6 40 44 76 84 36 40 74 83 85 95 11 13 45 51 75 85
30 34 69 77 85 95 42 45 163 180 220 245 27 30 65 73 85 95 32 34 219 242 484
539 39 44 78 87 86 96 8 9 33 36 54 60 22 25 76 86 121 135 45 50 99 110 121
135 21 24 46 51 54 60 33 36 99 109 170 190 41 46 84 94 95 106 19 19 126 139
168 188 10 12 49 54 85 95 37 41 75 83 85 95 10 12 35 39 55 61 21 22 75 83
122 135 46 52 86 97 89 100 3 3 60 66 126 140 66 74 122 137 125 140 3 3 43
48 90 100 47 52 101 112 120 134 19 21 40 44 45 50 82 91 184 205 200 222 11
11 42 46 68 77 27 30 63 71 80 90 40 43 72 78 227 252 69 77 129 145 135 151
5 6 44 49 85 95 41 46 95 106 120 134 25 27 50 54 55 61 19 21 160 178 210
234 27 30 61 69 76 85 15 17 36 39 46 51 10 12 52 58 93 104 41 46 83 92 93
103 31 36 161 180 182 202 11 12 33 37 49 56 15 18 47 54 70 79 22 25 77 85
121 135 44 49 89 99 100 111 11 11 52 56 90 100 66 74 103 115 187 209 20 22
45 50 55 62 20 22 103 115 263 293 52 58 111 123 130 145 19 21 49 54 65 71
17 18 41 45 54 61 25 29 182 204 191 213 3 3 61 68 130 145 68 77 131 147 139
156 9 9 27 29 41 45 72 81 294 330 299 334 3 3 44 48 90 100 46 52 119 133
161 180 42 47 141 157 220 245 79 88 175 195 214 239 39 43 92 102 117 130 25
28 90 101 145 162 54 60 133 148 174 194 41 46 84 93 95 106 11 12 49 55 85
95 36 40 70 78 75 84 6 6 48 53 94 105 47 52 89 100 95 105 6 6 45 48 86 95
41 47 81 92 90 101 8 9 44 49 80 89 36 41 70 78 75 84 6 6 31 35 57 64 l47 54
-22 31 c-12 18 -25 33 -29 35 -5 2 -8 8 -8 13 0 5 -22 40 -50 79 -27 39 -50
74 -50 79 0 5 -4 11 -8 13 -8 3 -46 59 -321 463 -63 94 -119 175 -123 180 -10
11 -514 751 -586 860 -26 39 -49 72 -52 75 -3 3 -35 48 -70 100 -35 52 -91
136 -125 185 -34 50 -97 142 -140 205 -43 63 -97 142 -120 175 -23 33 -89 130
-147 215 -58 85 -144 211 -191 280 -47 69 -119 175 -160 235 -42 61 -169 247
-284 415 -114 168 -239 350 -276 405 -38 55 -138 201 -222 325 -85 124 -183
268 -219 320 -36 52 -102 150 -148 217 -46 67 -136 199 -201 295 -65 95 -173
254 -241 353 l-123 180 -5123 0 c-4065 1 -5125 -2 -5135 -11z"/>
</g>
</svg>
