<?xml version="1.0" standalone="no"?>
<!DOCTYPE svg PUBLIC "-//W3C//DTD SVG 20010904//EN"
 "http://www.w3.org/TR/2001/REC-SVG-20010904/DTD/svg10.dtd">
<svg version="1.0" xmlns="http://www.w3.org/2000/svg"
 width="300.000000pt" height="300.000000pt" viewBox="0 0 300.000000 300.000000"
 preserveAspectRatio="xMidYMid meet">
<metadata>
Created by potrace 1.11, written by Peter Selinger 2001-2013
</metadata>
<g transform="translate(0.000000,300.000000) scale(0.100000,-0.100000)"
fill="#000000" stroke="none">
<path d="M755 2585 c-7 -5 -111 -167 -230 -360 -120 -192 -231 -369 -247 -392
l-28 -41 48 -54 c27 -29 64 -70 83 -92 19 -21 45 -51 59 -66 14 -15 38 -43 55
-61 16 -19 92 -104 169 -189 76 -85 169 -188 205 -229 36 -41 75 -84 86 -95
11 -12 52 -57 90 -101 60 -69 112 -127 175 -195 8 -9 46 -52 85 -96 38 -43 86
-97 107 -119 20 -22 45 -50 56 -62 11 -13 22 -23 25 -23 3 0 43 42 88 92 45
51 103 116 128 143 25 28 82 91 125 140 44 50 85 95 90 100 6 6 47 51 91 100
44 50 82 92 85 95 5 5 118 132 200 224 19 22 60 67 90 101 53 59 150 166 260
290 30 33 62 68 71 79 17 18 14 25 -86 170 -57 83 -168 246 -246 361 -79 116
-156 228 -173 250 l-31 40 -709 0 c-460 0 -713 -3 -721 -10z m1237 -332 c10
-2 70 -82 134 -176 65 -95 133 -194 151 -220 38 -55 38 -55 -29 -128 -18 -20
-69 -76 -113 -125 -44 -48 -89 -98 -100 -110 -11 -12 -56 -61 -100 -110 -44
-49 -105 -116 -135 -149 -30 -33 -89 -98 -130 -144 -41 -45 -96 -105 -121
-133 l-45 -49 -95 102 c-52 56 -110 118 -129 139 -48 52 -240 257 -270 290
-14 15 -71 76 -126 136 -56 60 -125 134 -153 164 -28 30 -51 59 -51 64 0 5 64
109 142 231 l141 222 506 1 c278 0 514 -2 523 -5z"/>
</g>
</svg>
