<?xml version="1.0" encoding="UTF-8" standalone="no"?>
<svg width="120px" height="32px" viewBox="0 0 120 32" version="1.1" xmlns="http://www.w3.org/2000/svg" xmlns:xlink="http://www.w3.org/1999/xlink">
    <!-- Generator: Sketch 40.3 (33839) - http://www.bohemiancoding.com/sketch -->
    <title>Logo - Forbes</title>
    <desc>Created with Sketch.</desc>
    <defs></defs>
    <g id="Page---Main-Page" stroke="none" stroke-width="1" fill="none" fill-rule="evenodd">
        <g id="Main-Page---1280" transform="translate(-822.000000, -886.000000)">
            <g id="Logos" transform="translate(0.000000, 800.000000)">
                <g id="Row-of-Logos" transform="translate(343.000000, 42.000000)">
                    <g id="Group-4">
                        <g id="Logo---Forbes" transform="translate(479.000000, 0.000000)">
                            <rect id="Logo-4" x="0" y="0" width="120" height="120"></rect>
                            <path d="M34.3295965,75.1294236 C35.8636599,74.7712392 37.0866571,74.2246686 38.1797118,73.4082709 C40.8386455,71.4224784 42.2955043,68.3776081 42.4300288,64.5255043 C42.5626513,60.7280403 41.4173775,57.4908934 39.2028242,55.4036888 C37.4051585,53.7094236 35.1397695,52.8972622 32.2114409,52.8972622 C29.1073487,52.8972622 26.6074928,53.859683 24.6842075,55.7953314 C22.6239769,57.8686167 21.5342075,60.7609798 21.5342075,64.155562 C21.5342075,67.677147 22.5188473,70.5199712 24.4282133,72.5116427 C25.4808934,73.6097118 26.5056484,74.268415 27.9751297,74.7910375 C28.4947262,74.9759654 28.8770317,75.064755 30.266196,75.3229107 C30.385072,75.3450432 31.1827089,75.3491066 32.0385303,75.3319885 C33.1972046,75.3089914 33.7825072,75.2571182 34.3295965,75.1294236 L34.3295965,75.1294236 L34.3295965,75.1294236 Z M31.0492219,73.9008069 C29.6291066,73.2566282 28.6220749,71.2983285 28.1174352,68.1998559 C27.797464,66.2356772 27.7672046,61.8676081 28.058732,59.7272334 C28.4681844,56.7215274 29.3329971,54.9458213 30.6796254,54.3459942 C31.6027089,53.9348127 32.881902,54.178098 33.7043516,54.9211816 C35.5310663,56.5714409 36.4530259,61.2643228 36.0551585,66.8867723 C35.769683,70.9214697 34.8940634,73.1097406 33.2608357,73.8702017 C32.6688761,74.1459942 31.6215562,74.1603458 31.0492219,73.9008069 L31.0492219,73.9008069 L31.0492219,73.9008069 Z M71.8080692,75.244928 C74.4343228,74.8511239 76.3607205,73.9491354 77.9921326,72.3497118 C80.3502882,70.0377233 81.4861383,66.7747262 81.3326801,62.75317 C81.2536599,60.6827378 80.9155331,59.3302305 80.0573775,57.6523055 C78.8948127,55.3792219 76.906513,53.7847262 74.6488184,53.3151873 C72.9553314,52.9629683 70.7763977,53.2388473 69.1197406,54.0152161 C68.7069164,54.2087032 68.3116427,54.3670029 68.2415274,54.3670029 C68.1301729,54.3670029 68.1180692,53.7268012 68.1464265,49.3242363 L68.1789337,44.2814697 L67.8320749,44.3509798 C67.641268,44.3891931 65.6955908,44.7517867 63.5082709,45.1566571 C61.3208646,45.5615274 59.4459942,45.9127954 59.3417291,45.9371758 C59.1832565,45.9743516 59.1555043,46.0346974 59.1724496,46.3054755 C59.1913833,46.6071182 59.216196,46.634438 59.5348703,46.7045533 C60.630951,46.9456772 60.8260807,47.0316138 61.2335447,47.4525648 C61.7326513,47.9682709 61.9582133,48.6267147 62.1061383,50.0010086 C62.2240634,51.0960519 62.2501729,69.9625072 62.1376081,72.7473199 L62.070951,74.3986167 L62.9624784,74.5892507 C66.3383862,75.3111527 69.703487,75.5605764 71.8080692,75.244928 L71.8080692,75.244928 L71.8080692,75.244928 L71.8080692,75.244928 Z M68.7238617,73.929683 C68.5491354,73.911268 68.3621326,73.8432277 68.3084438,73.7785591 C68.1602594,73.5999424 67.9997983,61.8639769 68.0985303,58.4304035 L68.1768588,55.7070605 L68.8685014,55.5076081 C69.8889337,55.213487 70.9875216,55.2591354 71.7663112,55.6282997 C73.3302882,56.3694813 74.3578098,58.2003458 74.8913256,61.1969741 C75.0651873,62.1731412 75.0394236,65.5633141 74.8491354,66.7697983 C74.4516138,69.2888473 73.728415,71.2328818 72.7217291,72.4889914 C72.2336023,73.0977233 71.4230836,73.6736888 70.7892795,73.8619885 C70.3805187,73.9834582 69.504121,74.0121614 68.7238617,73.929683 L68.7238617,73.929683 L68.7238617,73.929683 Z M95.6240922,75.2420749 C97.6272622,74.9173487 99.5999135,73.955879 101.017695,72.6133141 C101.794323,71.8779251 102.051873,71.5230259 101.94389,71.3370605 C101.655735,70.8409798 101.668184,70.8414986 100.932363,71.293487 C99.760634,72.0131412 99.1733429,72.2117291 97.7968012,72.3529107 C96.1889049,72.5178674 94.7058501,72.2492507 93.3353602,71.5445533 C92.426196,71.0770029 91.3367723,70.0018444 90.7921902,69.0348415 C90.0491066,67.7150144 89.645879,66.1735159 89.5257061,64.1923919 C89.4752161,63.3605187 89.4861095,63.1532853 89.5838905,63.0913833 C89.6504611,63.0492795 92.5333141,63.0145245 96.0371758,63.0139193 L102.370029,63.012536 L102.370029,62.7623343 C102.370029,62.1937176 102.183372,60.6651873 102.016081,59.8640058 C101.343372,56.6418156 99.5673199,54.3442651 97.0348703,53.4200576 C96.0268876,53.0521902 95.0733718,52.8973487 93.8165706,52.8973487 C90.8388761,52.8973487 88.4069741,53.8740346 86.5257061,55.8255908 C85.0257061,57.3815274 84.1358213,59.1293948 83.5927089,61.5861095 C83.4289625,62.326513 83.4015562,62.7114121 83.4015562,64.2662248 C83.4015562,65.8096254 83.4295677,66.2077522 83.5882133,66.9216138 C84.5963689,71.456196 87.5795965,74.4424496 91.8656196,75.2074063 C92.9517579,75.4011527 94.5523919,75.4160231 95.6240922,75.2420749 L95.6240922,75.2420749 L95.6240922,75.2420749 Z M89.5440346,61.5631988 C89.4789337,61.4579827 89.6402594,59.9191643 89.8000288,59.1220461 C90.1848415,57.2007493 90.8010086,55.8134006 91.649049,54.9591354 C92.1051009,54.4996254 92.3131988,54.3563689 92.6851297,54.245879 C92.9411239,54.1698847 93.2310086,54.1078963 93.3294813,54.1081556 C93.7261383,54.1091931 94.1942075,54.3116715 94.5426225,54.6327666 C95.4777233,55.4947262 96.0127954,57.3456484 96.1187896,60.0855043 L96.1710951,61.4379251 L95.2719597,61.4880692 C93.4671182,61.5886167 89.5911527,61.6395389 89.5440346,61.5631988 L89.5440346,61.5631988 L89.5440346,61.5631988 L89.5440346,61.5631988 Z M113.176945,75.2498559 C116.850086,74.6921326 119.221729,72.7224207 119.843775,69.7128242 C120.144207,68.2595965 120.004063,66.6436599 119.483775,65.5629683 C118.755476,64.05 117.524006,63.1366859 114.473775,61.8471182 C112.208386,60.889366 110.850432,60.077464 110.294179,59.3482997 C109.834755,58.7459654 109.685447,58.2828242 109.691499,57.4794813 C109.700749,56.2677233 110.160086,55.3397118 111.036916,54.7610663 C111.771009,54.2765706 112.69098,54.1583862 113.762075,54.4110086 C115.056398,54.716196 116.029798,55.510634 116.908876,56.9794236 C117.188559,57.4468012 117.763746,58.7589337 118.043775,59.5685879 C118.087262,59.6942075 118.13732,59.6994813 118.439222,59.6103458 C118.629337,59.5542363 118.811585,59.4816138 118.844265,59.4489337 C118.876945,59.4163401 118.874784,58.177781 118.839424,56.6966282 L118.77536,54.0037176 L118.4617,53.8708357 C117.932334,53.6467435 116.550692,53.2709222 115.640749,53.1034582 C114.956023,52.9774928 114.353602,52.9448991 112.744496,52.9467147 C110.823718,52.9487896 110.666974,52.9613256 109.87366,53.1765994 C107.569366,53.8017579 105.861009,55.1021326 104.968271,56.9104323 C104.493804,57.8714697 104.329798,58.6123055 104.335245,59.770634 C104.342853,61.4152738 104.791037,62.629366 105.782161,63.69 C106.63487,64.6027089 107.74366,65.2538905 109.632104,65.9511527 C111.118184,66.4998847 112.652334,67.2661383 113.23366,67.7500288 C113.575418,68.0343804 113.843948,68.3583285 114.044092,68.7280115 C114.328876,69.2536599 114.343573,69.3230836 114.343746,70.1452738 C114.343746,70.9373775 114.320922,71.058415 114.06951,71.5891643 C113.41245,72.9758213 112.098329,73.6642651 110.376916,73.5236023 C108.037867,73.3322767 106.391326,71.7855043 105.050663,68.5202594 C104.700951,67.6685014 104.677089,67.6508646 104.145389,67.8529971 L103.901412,67.9457637 L103.962363,70.9907205 C104.016571,73.6933141 104.039827,74.0482133 104.168473,74.1470317 C104.552853,74.4416715 107.041297,75.0323343 108.76755,75.2385303 C110.107781,75.3984726 112.163602,75.4038329 113.176945,75.2498559 L113.176945,75.2498559 L113.176945,75.2498559 L113.176945,75.2498559 Z M15.5687896,74.2949568 C15.5687896,74.0334294 15.5454467,73.8194524 15.5169164,73.8194524 C15.1048703,73.8194524 13.1853026,73.4055908 12.8767435,73.2502305 C11.7789337,72.6973487 11.2714409,71.383487 11.0744957,68.5843228 C10.9345245,66.5944669 10.795245,60.7486167 10.8855908,60.6581844 C10.9675504,60.5762248 14.6228818,60.721902 15.0499712,60.8240922 C16.2311239,61.1068876 17.141585,62.2688473 17.597464,64.0751585 L17.7983862,64.8713256 L18.326196,64.8971758 L18.8539193,64.922853 L18.8539193,59.9043804 L18.8539193,54.8858213 L18.2919597,54.8858213 C17.7666571,54.8858213 17.73,54.8984438 17.73,55.0806052 C17.73,55.4081844 17.4020749,56.4447839 17.0916138,57.0984726 C16.605389,58.1222767 15.9206628,58.7402594 15.0498847,58.9410951 C14.8359078,58.9904611 13.8259366,59.0694813 12.8053314,59.1167723 C11.3660231,59.1834294 10.9340922,59.1791066 10.8798847,59.0975793 C10.7795101,58.9468876 11.0081844,47.5640922 11.122219,47.0351585 L11.1651873,46.8357925 L14.3395677,46.8622478 L17.5139481,46.8887896 L18.2527089,47.1533429 C19.9636599,47.7661383 21.1947839,49.0174063 22.2234294,51.1890778 C22.454611,51.6770317 22.7508069,52.3873487 22.8817003,52.7678386 C23.0125937,53.1482421 23.1284438,53.471585 23.1391643,53.4863689 C23.1497983,53.5011527 23.433804,53.4296542 23.7702017,53.327464 L24.3818732,53.1416715 L24.3389049,50.3178674 C24.3153026,48.7647839 24.2733718,46.9007205 24.2460519,46.1756196 L24.1961671,44.8571758 L12.1406628,44.8571758 L0.0850720461,44.8571758 L0.110835735,45.3971758 L0.136512968,45.9371758 L0.914610951,46.034438 C1.95268012,46.1642075 2.33317003,46.2773775 2.75118156,46.5801441 C3.38481268,47.0391354 3.77446686,47.7133141 4.01982709,48.7753314 C4.40100865,50.4251585 4.53821326,54.1459366 4.47475504,61.1107781 C4.40757925,68.4701153 4.31472622,70.000634 3.8456196,71.4854179 C3.45976945,72.7065994 2.74149856,73.353804 1.55533141,73.5498847 C1.22887608,73.6037464 0.766340058,73.689683 0.527550432,73.7410375 L0.0933717579,73.8340634 L0.0933717579,74.3024784 L0.0933717579,74.7707205 L7.83112392,74.7707205 L15.5688761,74.7707205 L15.5688761,74.2949568 L15.5687896,74.2949568 L15.5687896,74.2949568 L15.5687896,74.2949568 Z M55.4247839,74.3023919 L55.4247839,73.8343228 L54.754755,73.7776081 C53.209366,73.6472334 52.7859942,73.4920461 52.3800865,72.9076945 C51.7919308,72.0606916 51.6639769,70.4977522 51.6639769,64.1651585 L51.6639769,59.2225937 L51.8782997,58.994438 C52.148732,58.7065418 52.9940922,58.3048703 53.5918444,58.1802882 C54.8056772,57.927147 56.3573775,58.145879 57.570951,58.7410375 C57.9192795,58.9118732 58.2188473,59.0370605 58.2366571,59.0191643 C58.2724496,58.9833718 60.2657637,53.7159942 60.3275793,53.4937176 C60.3556772,53.3929107 60.2408646,53.305072 59.9055908,53.1708934 C59.1879251,52.8836888 58.5656196,52.7853026 57.7628818,52.8318156 C55.6156772,52.9563977 53.7101153,54.3829107 52.3375504,56.8931412 C52.1097406,57.3098559 51.8737176,57.6511816 51.8131988,57.6516138 C51.7251009,57.652219 51.7148991,57.1735159 51.7621902,55.2697695 L51.8214121,52.887147 L51.6130548,52.9362536 C51.498415,52.9632277 49.7706052,53.3132853 47.7735735,53.7140922 C43.4902305,54.5737176 42.8948991,54.6989914 42.7927954,54.7621037 C42.7505187,54.7882133 42.7159366,54.9427089 42.7159366,55.1055043 C42.7159366,55.4319597 42.6778098,55.4130259 43.6510375,55.5695965 C44.9889337,55.7847839 45.4614121,56.4370893 45.660951,58.344121 C45.9210951,60.8306628 45.8171758,70.5237752 45.5161383,71.847147 C45.3622478,72.5237464 44.9645533,73.1753602 44.5642651,73.4068876 C44.4159078,73.4928242 43.949049,73.6304611 43.5268012,73.712853 L42.7590778,73.8627666 L42.7328818,74.3166571 L42.7067723,74.7705476 L49.0657349,74.7705476 L55.4247839,74.7705476 L55.4247839,74.3023919 L55.4247839,74.3023919 L55.4247839,74.3023919 Z" fill="#FFFFFF"></path>
                        </g>
                    </g>
                </g>
            </g>
        </g>
    </g>
</svg>