<?xml version="1.0" encoding="UTF-8" standalone="no"?>
<svg width="97px" height="30px" viewBox="0 0 97 30" version="1.1" xmlns="http://www.w3.org/2000/svg" xmlns:xlink="http://www.w3.org/1999/xlink">
    <!-- Generator: Sketch 40.3 (33839) - http://www.bohemiancoding.com/sketch -->
    <title>Logo - TNW</title>
    <desc>Created with Sketch.</desc>
    <defs></defs>
    <g id="Page---Main-Page" stroke="none" stroke-width="1" fill="none" fill-rule="evenodd">
        <g id="Main-Page---1280" transform="translate(-531.000000, -887.000000)">
            <g id="Logos" transform="translate(0.000000, 800.000000)">
                <g id="Row-of-Logos" transform="translate(343.000000, 42.000000)">
                    <g id="Group-4">
                        <g id="Logo---TNW" transform="translate(176.750000, 0.000000)">
                            <rect id="Logo-2" x="0" y="0" width="120" height="120"></rect>
                            <path d="M87.8008511,45.1474043 C88.2808511,45.3220426 88.5613617,45.5892766 88.7649362,45.9409362 C89.0100426,46.3644255 89.216,46.8073191 89.3378723,47.2825532 C89.7378723,48.8495319 90.132766,50.4175319 90.5310638,51.9841702 C91.0754043,54.1240851 91.6187234,56.2633191 92.164766,58.4025532 C92.1790638,58.4600851 92.2045957,58.5148936 92.2437447,58.6200851 C93.773617,54.1084255 95.284766,49.6556596 96.7938723,45.203234 L97.1353191,45.203234 C99.7991489,45.203234 102.462979,45.203234 105.126809,45.2028936 C106.017702,45.2028936 106.908255,45.2005106 107.799489,45.1994894 C107.641872,45.3649362 107.558128,45.5266383 107.490383,45.704 C103.821617,55.2434043 100.151149,64.7821277 96.4810213,74.3208511 C96.4105532,74.5036596 96.3366809,74.684766 96.2638298,74.8675745 L87.5673191,74.8675745 C86.2525957,69.0142979 84.9405957,63.1756596 83.6292766,57.3377021 C82.2941277,63.1841702 81.012766,69.0309787 79.7310638,74.8760851 L71.117617,74.8760851 C69.7031489,71.253617 68.2944681,67.6471489 66.8861277,64.0396596 C66.8674043,64.0444255 66.8316596,65.8401702 66.8316596,65.8401702 L66.8316596,67.6393191 L66.8316596,69.4384681 L66.8316596,71.2379574 C66.8316596,71.8374468 66.8337021,72.4365957 66.8309787,73.0364255 C66.8275745,73.6321702 66.8462979,74.2279149 66.8177021,74.844766 L66.5133617,74.844766 C65.3225532,74.844766 64.1314043,74.8474894 62.9405957,74.8427234 C62.6413617,74.8420426 62.3404255,74.8291064 62.0422128,74.8011915 C61.435234,74.7450213 60.8670638,74.5666383 60.3761702,74.1908085 C59.8097021,73.7574468 59.2864681,73.2706383 58.8388085,72.7177872 C55.2064681,68.2292766 51.5836596,63.7329362 47.9577872,59.24 C47.901617,59.1705532 47.8396596,59.1051915 47.780766,59.0377872 C47.7637447,59.0439149 47.7290213,61.0211064 47.7290213,61.0211064 L47.7290213,63.0003404 L47.7290213,64.9788936 L47.7290213,66.9577872 L47.7290213,68.9366809 L47.7290213,70.915234 C47.7290213,71.5749787 47.7314043,72.2354043 47.728,72.8941277 C47.7245957,73.5504681 47.7433191,74.2064681 47.7160851,74.8658723 L39.7606809,74.8658723 L39.7606809,72.9271489 L39.7606809,70.9996596 L39.7606809,69.0718298 L39.7606809,67.144 L39.7606809,65.2161702 L39.7606809,63.2631489 L39.7606809,61.3356596 L39.7606809,59.4081702 L39.7606809,57.4803404 C39.7606809,56.8369362 39.762383,56.195234 39.76,55.5525106 C39.7572766,54.9145532 39.771234,54.2755745 39.7514894,53.6362553 L31.7664681,53.6362553 L31.7664681,74.8437447 C31.5128511,74.9029787 23.5305532,74.8982128 23.312,74.8393191 L23.312,53.626383 L15.8965106,53.626383 C15.8515745,53.5334468 15.8134468,53.4575319 15.7787234,53.3802553 C15.264,52.2125957 14.7499574,51.045617 14.235234,49.8782979 C13.586383,48.4059574 12.9375319,46.9325957 12.2852766,45.4609362 C12.2505532,45.3829787 12.1817872,45.3186383 12.1293617,45.2478298 C12.1504681,45.2154894 12.0793191,45.1388936 12.1804255,45.1443404 C12.2403404,45.1474043 46.7775319,45.1446809 46.7775319,45.1446809 C47.5268085,45.2573617 48.013617,45.4718298 48.4057872,45.8714894 C48.6090213,46.0781277 48.7996596,46.3014468 48.9749787,46.5322553 C50.3346383,48.3269787 51.6874894,50.1278298 53.0457872,51.9245957 C54.7445106,54.172766 56.4466383,56.4175319 58.1484255,58.6626383 C58.1954043,58.7242553 58.2236596,58.8148085 58.3400851,58.8297872 L58.3400851,58.5853617 C58.3428085,55.896 58.3458723,53.2062979 58.3485957,50.5169362 C58.349617,49.7121702 58.3479149,48.9070638 58.354383,48.1019574 C58.3588085,47.5749787 58.4333617,47.0602553 58.6522553,46.5754894 C58.9763404,45.8582128 59.5142128,45.3969362 60.288,45.2195745 C60.3778723,45.1988085 60.4657021,45.1698723 60.5548936,45.1446809 L69.396766,45.1446809 C70.0153191,45.2451064 70.420766,45.4820426 70.7591489,45.8442553 C71.0546383,46.1618723 71.2755745,46.5257872 71.4097021,46.9394043 C71.5131915,47.2570213 71.6122553,47.5746383 71.7126809,47.893617 C72.829617,51.4333617 73.9465532,54.9748085 75.0645106,58.5145532 C75.0907234,58.5982979 75.1261277,58.6793191 75.1754894,58.8093617 C75.1962553,58.7242553 75.2034043,58.7004255 75.2085106,58.6748936 C75.4015319,57.562383 75.5942128,56.4491915 75.7879149,55.3366809 C76.1089362,53.4905532 76.4306383,51.6451064 76.7526809,49.7996596 C76.9041702,48.931234 77.0325106,48.0587234 77.2177021,47.196766 C77.4396596,46.1669787 78.0500426,45.4714894 79.1022979,45.212766 C79.1914894,45.1937021 79.2810213,45.1702128 79.3698723,45.1474043 L87.8008511,45.1474043 Z" fill="#FFFFFF"></path>
                        </g>
                    </g>
                </g>
            </g>
        </g>
    </g>
</svg>