<?xml version="1.0" encoding="UTF-8" standalone="no"?>
<svg width="120px" height="21px" viewBox="0 0 120 21" version="1.1" xmlns="http://www.w3.org/2000/svg" xmlns:xlink="http://www.w3.org/1999/xlink">
    <!-- Generator: Sketch 40.3 (33839) - http://www.bohemiancoding.com/sketch -->
    <title>Logo - The Verge</title>
    <desc>Created with Sketch.</desc>
    <defs></defs>
    <g id="Page---Main-Page" stroke="none" stroke-width="1" fill="none" fill-rule="evenodd">
        <g id="Main-Page---1280" transform="translate(-343.000000, -892.000000)" fill="#FFFFFF">
            <g id="Logos" transform="translate(0.000000, 800.000000)">
                <g id="Row-of-Logos" transform="translate(340.000000, 40.000000)">
                    <g id="Group-4" transform="translate(2.000000, 2.000000)">
                        <g id="Logo---Verge-1" transform="translate(1.000000, 0.000000)">
                            <path d="M98.4625818,70.3354389 C94.9753528,69.725525 92.0819277,67.4048365 90.7703959,64.1654561 C90.0948021,62.4970224 89.8661618,59.6366437 90.2709811,57.9198795 C90.8474355,55.4758864 92.3985542,53.2404991 94.4162478,51.9454905 C96.2069535,50.7967126 97.6236145,50.4724441 101.370878,50.3551291 L104.72716,50.25 L104.72716,53.7640792 L104.72716,57.2781583 L103.436282,56.7523064 C102.588434,56.4069707 101.613769,56.1969191 100.596351,56.1399139 C99.150568,56.0591566 98.9826506,56.0950947 98.075938,56.6789845 C96.7765921,57.5158864 96.1776248,58.6685886 96.1650258,60.3547849 C96.1569707,61.4477969 96.2445439,61.7540964 96.783821,62.5216007 C97.6207229,63.7120998 98.7602065,64.3416351 100.08,64.3416351 C101.450396,64.3420482 101.672014,64.1733046 101.59167,63.1914114 L101.525783,62.3863167 L99.9250947,62.3966437 L98.3244062,62.4069707 L98.3241997,60.1246988 L98.3239931,57.8424269 L102.661549,57.9019105 L106.999105,57.9616007 L106.999105,62.1568503 C106.999105,64.7067986 107.089363,66.610895 107.228985,67.0122031 C107.518348,67.8424957 107.24716,68.1793632 105.570052,69.0732702 C103.54864,70.1507917 100.500723,70.6919277 98.4625818,70.3354389 Z M3.44654045,69.5635972 C3.5427883,69.3646988 3.65039587,66.1951291 3.68592083,62.5201549 L3.75036145,55.8381583 L1.87518072,55.9108606 L-7.10542736e-15,55.9835628 L0.0570051635,53.1952668 L0.114216867,50.4069707 L4.91628227,50.3514114 L9.71834768,50.295852 L9.71834768,60.1104475 L9.71834768,69.925043 L6.49528399,69.925043 C3.49611015,69.925043 3.28378657,69.8998451 3.44654045,69.5635972 Z M10.9577969,60.1143718 L10.9577969,50.3037005 L15.1918761,50.3037005 L19.4259552,50.3037005 L19.4259552,53.160568 L19.4259552,56.0174355 L18.2899828,55.923253 L17.1540103,55.8290706 L17.1540103,56.8873838 L17.1540103,57.9456971 L18.9096041,57.9456971 L20.6651979,57.9456971 L20.6651979,54.1246988 L20.6651979,50.3037005 L23.7633046,50.3037005 L26.8614114,50.3037005 L26.8614114,60.1143718 L26.8614114,69.925043 L23.5617212,69.925043 L20.2624441,69.925043 L20.463821,69.3952668 C20.5747332,69.1038382 20.6654045,67.4773322 20.6654045,65.780809 L20.6654045,62.6961274 L18.8998967,62.6961274 L17.134389,62.6961274 L17.1973838,65.9491394 C17.2318761,67.7381928 17.3392771,69.3646988 17.4357315,69.5635972 C17.5993115,69.9000516 17.3822375,69.925043 14.2847504,69.925043 L10.9577969,69.925043 L10.9577969,60.1143718 Z M27.7140103,69.5838382 C28.1446472,69.0650086 28.2437866,52.3775731 27.8234768,51.1573322 L27.5293632,50.3037005 L33.4948709,50.3037005 L39.4603787,50.3037005 L39.4603787,53.1651119 L39.4603787,56.0265232 L38.3760413,55.742117 C37.764062,55.5818417 36.5719105,55.4824957 35.6393804,55.5140964 L33.9870568,55.5704819 L33.9242685,56.7845267 L33.8614802,57.9985714 L35.6282272,57.9060413 L37.3949742,57.8133046 L37.3949742,60.2296213 L37.3949742,62.6461446 L36.4810327,62.4511704 C35.9785198,62.3439759 35.2116351,62.285525 34.777074,62.3212565 L33.9870568,62.3863167 L33.9238554,63.493167 L33.8604475,64.6000172 L36.1958003,64.4981928 C37.4800688,64.4422203 38.7399656,64.3280034 38.9956627,64.2447676 L39.4603787,64.09358 L39.4603787,67.009105 L39.4603787,69.925043 L33.4455077,69.925043 C27.875525,69.925043 27.4512909,69.8998451 27.7140103,69.5838382 Z M51.1648193,69.2537866 C48.3069191,62.415852 43.3889845,51.3341308 43.0147332,50.8894492 L42.5217212,50.3037005 L49.4592083,50.3037005 C53.2748365,50.3037005 56.3964888,50.3733046 56.3960757,50.4586059 C56.3956627,50.5437005 55.9904303,51.682358 55.4955594,52.9887263 L54.5956627,55.3639415 L53.0176936,55.4242513 C52.1498107,55.4572978 51.4397246,55.519673 51.4397246,55.5624269 C51.4397246,55.7578141 53.3745955,60.9589157 53.5007917,61.1022547 C53.5790706,61.1912737 54.5549742,58.7980895 55.6694664,55.7838382 L57.6958348,50.3037005 L65.7209639,50.3037005 L73.7460929,50.3037005 L73.7460929,53.3204303 C73.7460929,56.1194664 73.7200688,56.3253873 73.3846472,56.1711015 C73.1857487,56.0796041 71.931222,55.9688985 70.5963511,55.9253184 L68.1695009,55.8455938 L68.1695009,56.921463 L68.1695009,57.9975387 L69.9250947,57.9054217 L71.6806885,57.8133046 L71.6806885,60.2296213 L71.6806885,62.6461446 L70.766747,62.4511704 C70.2642341,62.3439759 69.4973494,62.285525 69.0627883,62.3212565 L68.2727711,62.3863167 L68.210809,63.5739243 L68.1488468,64.7615318 L69.9920138,64.7615318 C71.1025818,64.7615318 72.1842341,64.6382272 72.7133907,64.4517212 C73.1964888,64.2813253 73.6262995,64.1419105 73.6688468,64.1419105 C73.7113941,64.1419105 73.7460929,65.4431153 73.7460929,67.0334768 L73.7460929,69.925043 L67.731222,69.925043 C62.80358,69.925043 61.7566265,69.8762995 61.940241,69.6550947 C62.1866437,69.3580895 62.3884337,55.0537177 62.1459552,55.0539243 C62.070568,55.0541308 60.5857487,58.4000861 58.8464716,62.4895869 L55.6841308,69.925043 L53.5646127,69.925043 L51.4450947,69.925043 L51.1648193,69.2537866 Z M74.5423064,50.301222 L74.7100172,50.765938 C74.9355594,51.3865921 74.9293632,69.0997074 74.7036145,69.5611188 C74.5383821,69.8981928 74.7645439,69.9225645 78.0662995,69.9225645 C81.5027194,69.9225645 81.6043373,69.9099656 81.3967642,69.5222892 C81.2792427,69.3025301 81.183821,67.9959552 81.183821,66.6179174 C81.183821,64.1160929 81.1846472,64.1119621 81.648537,64.249105 C82.5172461,64.5056282 83.6538382,65.3792943 84.204475,66.2112392 C84.8255422,67.149759 85.0779346,68.7921687 84.7080207,69.4836661 L84.4692599,69.9225645 L87.9998623,69.9225645 C90.0648537,69.9225645 91.4819277,69.8451119 91.4141824,69.7354389 C91.3501549,69.6321687 91.1295697,68.5280034 90.9172461,67.2827711 C90.4492255,64.5399139 89.6104647,62.7948537 88.2774527,61.7772289 L87.393253,61.0995697 L87.8967986,60.4219105 C89.5815491,58.1379862 89.3122203,54.3178141 87.3288124,52.3346127 C85.7149053,50.7207057 83.8771084,50.3101033 78.3248881,50.3080379 L74.5423064,50.301222 Z M81.6357315,55.4713425 C81.8346299,55.4837349 82.1223408,55.596506 82.5329432,55.7683477 C83.7628916,56.2822203 84.0117728,57.626179 83.0556971,58.5824613 C82.6500516,58.9881067 82.2433735,59.1826678 81.8164544,59.1826678 L81.1840275,59.1826678 L81.1840275,57.3238038 C81.1840275,55.9038382 81.1980723,55.4442857 81.6357315,55.4713425 Z M107.958072,69.5635972 C108.184854,69.1009466 108.191463,51.3884509 107.965301,50.7651119 L107.795525,50.2970912 L113.748434,50.352031 L119.701343,50.4069707 L119.758761,53.262599 L119.816386,56.1182272 L119.34568,55.9674527 C118.201446,55.6004303 117.323236,55.4767126 115.828709,55.4721687 L114.228021,55.4674182 L114.228021,56.7324785 L114.228021,57.9977453 L115.983614,57.9056282 L117.739208,57.8135112 L117.739208,60.2771256 C117.739208,62.5391566 117.709466,62.7291738 117.377762,62.6002926 C117.178864,62.523253 116.398761,62.4075904 115.643855,62.3435628 L114.271394,62.2272806 L114.198072,63.3145095 C114.14685,64.0739587 114.205921,64.4327194 114.394492,64.5052151 C114.744991,64.639673 118.735559,64.4236317 119.33969,64.2375387 L119.804406,64.0944062 L119.804406,67.0099312 L119.804406,69.925043 L113.792633,69.925043 C108.137556,69.925043 107.791601,69.9035628 107.958072,69.5635972 Z" id="Logo---The-Verge"></path>
                        </g>
                    </g>
                </g>
            </g>
        </g>
    </g>
</svg>