<?xml version="1.0" encoding="UTF-8" standalone="no"?>
<svg width="122px" height="146px" viewBox="0 0 122 146" version="1.1" xmlns="http://www.w3.org/2000/svg" xmlns:xlink="http://www.w3.org/1999/xlink">
    <!-- Generator: Sketch 40.3 (33839) - http://www.bohemiancoding.com/sketch -->
    <title>android</title>
    <desc>Created with Sketch.</desc>
    <defs></defs>
    <g id="Icons" stroke="none" stroke-width="1" fill="none" fill-rule="evenodd">
        <g id="Icon---Android---Light" transform="translate(-19.000000, -9.000000)" fill="#FFFFFF">
            <g id="android" transform="translate(19.000000, 9.000000)">
                <path d="M79.0483871,30.702621 L79.0483871,24.4652194 L73.0945048,24.4652194 L73.0945048,30.702621 L79.0483871,30.702621 Z M48.7119468,30.702621 L48.7119468,24.4652194 L42.7580645,24.4652194 L42.7580645,30.702621 L48.7119468,30.702621 Z M82.1670855,13.4080129 C92.184729,20.5904726 97.1935484,30.3245968 97.1935484,42.6103806 L24.6129032,42.6103806 C24.6129032,30.1355871 29.5272177,20.4014629 39.3558468,13.4080129 L31.4173387,5.46950484 C29.9052419,3.95740806 29.9052419,2.53981613 31.4173387,1.21673387 C32.9294355,-0.106348387 34.3470274,-0.106348387 35.6701097,1.21673387 L44.7426903,10.2893145 C49.6570048,7.64314516 55.0438484,6.32005806 60.9032258,6.32005806 C66.5735887,6.32005806 71.8659274,7.64314516 76.7802419,10.2893145 L85.8528226,1.21673387 C87.3649194,-0.106348387 88.7825113,-0.106348387 90.1055935,1.21673387 C91.4286806,2.53981613 91.4286806,3.95740806 90.1055935,5.46950484 L82.1670855,13.4080129 Z M112.220011,48.8477823 C114.677166,48.8477823 116.803552,49.7455903 118.599168,51.5412065 C120.394784,53.3368177 121.292592,55.4632032 121.292592,57.9203629 L121.292592,100.164568 C121.292592,102.810737 120.394784,104.984377 118.599168,106.685484 C116.803552,108.38659 114.677166,109.237148 112.220011,109.237148 C109.762852,109.237148 107.636466,108.38659 105.84085,106.685484 C104.045239,104.984377 103.147431,102.810737 103.147431,100.164568 L103.147431,57.9203629 C103.147431,55.4632032 104.045239,53.3368177 105.84085,51.5412065 C107.636466,49.7455903 109.762852,48.8477823 112.220011,48.8477823 L112.220011,48.8477823 Z M9.58644032,48.8477823 C12.0436,48.8477823 14.1699855,49.7455903 15.9656016,51.5412065 C17.7612129,53.3368177 18.659021,55.4632032 18.659021,57.9203629 L18.659021,100.164568 C18.659021,102.810737 17.7612129,104.984377 15.9656016,106.685484 C14.1699855,108.38659 12.0436,109.237148 9.58644032,109.237148 C7.12928548,109.237148 5.0029,108.38659 3.20728387,106.685484 C1.41166774,104.984377 0.513859677,102.810737 0.513859677,100.164568 L0.513859677,57.9203629 C0.513859677,55.4632032 1.41166774,53.3368177 3.20728387,51.5412065 C5.0029,49.7455903 7.12928548,48.8477823 9.58644032,48.8477823 L9.58644032,48.8477823 Z M24.6129032,109.237148 L24.6129032,48.8477823 L97.1935484,48.8477823 L97.1935484,109.237148 C97.1935484,110.938255 96.6265097,112.355847 95.4924419,113.489919 C94.3583645,114.623992 92.9407774,115.191026 91.2396661,115.191026 L85.0022694,115.191026 L85.0022694,136.45489 C85.0022694,139.10106 84.1044613,141.2747 82.3088452,142.975806 C80.513229,144.676913 78.3868435,145.527471 75.9296887,145.527471 C73.472529,145.527471 71.3461435,144.676913 69.5505274,142.975806 C67.7549161,141.2747 66.8571081,139.10106 66.8571081,136.45489 L66.8571081,115.191026 L54.9493435,115.191026 L54.9493435,136.45489 C54.9493435,139.10106 54.0515355,141.2747 52.2559242,142.975806 C50.4603081,144.676913 48.3339226,145.527471 45.8767629,145.527471 C43.4196081,145.527471 41.2932226,144.676913 39.4976065,142.975806 C37.7019903,141.2747 36.8041823,139.10106 36.8041823,136.45489 L36.8041823,115.191026 L30.5667855,115.191026 C28.8656742,115.191026 27.4480871,114.623992 26.3140097,113.489919 C25.1799419,112.355847 24.6129032,110.938255 24.6129032,109.237148 L24.6129032,109.237148 Z" id="Shape"></path>
            </g>
        </g>
    </g>
</svg>