<?xml version="1.0" encoding="UTF-8" standalone="no"?>
<svg width="122px" height="146px" viewBox="0 0 122 146" version="1.1" xmlns="http://www.w3.org/2000/svg" xmlns:xlink="http://www.w3.org/1999/xlink">
    <!-- Generator: Sketch 40.3 (33839) - http://www.bohemiancoding.com/sketch -->
    <title>android</title>
    <desc>Created with Sketch.</desc>
    <defs></defs>
    <g id="Icons" stroke="none" stroke-width="1" fill="none" fill-rule="evenodd">
        <g id="Icon---Android" transform="translate(-19.000000, -9.000000)" fill="#000000">
            <g id="android" transform="translate(17.000000, 5.000000)">
                <path d="M81.0483871,34.702621 L81.0483871,28.4652194 L75.0945048,28.4652194 L75.0945048,34.702621 L81.0483871,34.702621 Z M50.7119468,34.702621 L50.7119468,28.4652194 L44.7580645,28.4652194 L44.7580645,34.702621 L50.7119468,34.702621 Z M84.1670855,17.4080129 C94.184729,24.5904726 99.1935484,34.3245968 99.1935484,46.6103806 L26.6129032,46.6103806 C26.6129032,34.1355871 31.5272177,24.4014629 41.3558468,17.4080129 L33.4173387,9.46950484 C31.9052419,7.95740806 31.9052419,6.53981613 33.4173387,5.21673387 C34.9294355,3.89365161 36.3470274,3.89365161 37.6701097,5.21673387 L46.7426903,14.2893145 C51.6570048,11.6431452 57.0438484,10.3200581 62.9032258,10.3200581 C68.5735887,10.3200581 73.8659274,11.6431452 78.7802419,14.2893145 L87.8528226,5.21673387 C89.3649194,3.89365161 90.7825113,3.89365161 92.1055935,5.21673387 C93.4286806,6.53981613 93.4286806,7.95740806 92.1055935,9.46950484 L84.1670855,17.4080129 Z M114.220011,52.8477823 C116.677166,52.8477823 118.803552,53.7455903 120.599168,55.5412065 C122.394784,57.3368177 123.292592,59.4632032 123.292592,61.9203629 L123.292592,104.164568 C123.292592,106.810737 122.394784,108.984377 120.599168,110.685484 C118.803552,112.38659 116.677166,113.237148 114.220011,113.237148 C111.762852,113.237148 109.636466,112.38659 107.84085,110.685484 C106.045239,108.984377 105.147431,106.810737 105.147431,104.164568 L105.147431,61.9203629 C105.147431,59.4632032 106.045239,57.3368177 107.84085,55.5412065 C109.636466,53.7455903 111.762852,52.8477823 114.220011,52.8477823 L114.220011,52.8477823 Z M11.5864403,52.8477823 C14.0436,52.8477823 16.1699855,53.7455903 17.9656016,55.5412065 C19.7612129,57.3368177 20.659021,59.4632032 20.659021,61.9203629 L20.659021,104.164568 C20.659021,106.810737 19.7612129,108.984377 17.9656016,110.685484 C16.1699855,112.38659 14.0436,113.237148 11.5864403,113.237148 C9.12928548,113.237148 7.0029,112.38659 5.20728387,110.685484 C3.41166774,108.984377 2.51385968,106.810737 2.51385968,104.164568 L2.51385968,61.9203629 C2.51385968,59.4632032 3.41166774,57.3368177 5.20728387,55.5412065 C7.0029,53.7455903 9.12928548,52.8477823 11.5864403,52.8477823 L11.5864403,52.8477823 Z M26.6129032,113.237148 L26.6129032,52.8477823 L99.1935484,52.8477823 L99.1935484,113.237148 C99.1935484,114.938255 98.6265097,116.355847 97.4924419,117.489919 C96.3583645,118.623992 94.9407774,119.191026 93.2396661,119.191026 L87.0022694,119.191026 L87.0022694,140.45489 C87.0022694,143.10106 86.1044613,145.2747 84.3088452,146.975806 C82.513229,148.676913 80.3868435,149.527471 77.9296887,149.527471 C75.472529,149.527471 73.3461435,148.676913 71.5505274,146.975806 C69.7549161,145.2747 68.8571081,143.10106 68.8571081,140.45489 L68.8571081,119.191026 L56.9493435,119.191026 L56.9493435,140.45489 C56.9493435,143.10106 56.0515355,145.2747 54.2559242,146.975806 C52.4603081,148.676913 50.3339226,149.527471 47.8767629,149.527471 C45.4196081,149.527471 43.2932226,148.676913 41.4976065,146.975806 C39.7019903,145.2747 38.8041823,143.10106 38.8041823,140.45489 L38.8041823,119.191026 L32.5667855,119.191026 C30.8656742,119.191026 29.4480871,118.623992 28.3140097,117.489919 C27.1799419,116.355847 26.6129032,114.938255 26.6129032,113.237148 L26.6129032,113.237148 Z" id="Shape"></path>
            </g>
        </g>
    </g>
</svg>