<?xml version="1.0" encoding="UTF-8" standalone="no"?>
<svg width="121px" height="145px" viewBox="0 0 121 145" version="1.1" xmlns="http://www.w3.org/2000/svg" xmlns:xlink="http://www.w3.org/1999/xlink">
    <!-- Generator: Sketch 40.3 (33839) - http://www.bohemiancoding.com/sketch -->
    <title>apple</title>
    <desc>Created with Sketch.</desc>
    <defs></defs>
    <g id="Icons" stroke="none" stroke-width="1" fill="none" fill-rule="evenodd">
        <g id="Icon---Apple---Light" transform="translate(-18.000000, -7.000000)" fill="#FFFFFF">
            <g id="apple" transform="translate(18.000000, 7.000000)">
                <path d="M120.622303,105.425722 C118.370922,112.6417 114.82066,119.857683 109.971522,127.07366 C102.524633,138.388316 95.1066052,144.045643 87.7174397,144.045643 C84.8887759,144.045643 80.8478276,143.122 75.5945948,141.274709 C70.6300034,139.427417 66.2715517,138.503769 62.5192448,138.503769 C58.9978448,138.503769 54.8991672,139.456279 50.2232121,141.3613 C45.5472621,143.324045 41.7372207,144.305417 38.7931034,144.305417 C30.0184707,144.305417 21.3304345,136.829666 12.7289897,121.878157 C4.2429931,106.81119 0,92.2926431 0,78.3225069 C0,65.1605603 3.26162069,54.3654534 9.78486724,45.9371914 C16.2503845,37.6243828 24.4477345,33.467981 34.3769224,33.467981 C38.5333293,33.467981 43.6422414,34.3339 49.7036638,36.0657328 C55.7073569,37.7975655 59.690581,38.6634845 61.6533259,38.6634845 C64.2510776,38.6634845 68.3786172,37.6821121 74.0359448,35.7193672 C79.9241845,33.7566172 84.9176431,32.7752448 89.0163155,32.7752448 C95.8859276,32.7752448 102.033941,34.6514034 107.460362,38.4037103 C110.462209,40.4819138 113.464055,43.3683017 116.465902,47.0628845 C111.905405,50.93065 108.614917,54.3365914 106.594443,57.2807138 C102.842131,62.7071293 100.965978,68.6819603 100.965978,75.2052017 C100.965978,82.3634552 102.95759,88.8001103 106.940809,94.5151621 C110.924028,100.230219 115.484529,103.867072 120.622303,105.425722 L120.622303,105.425722 Z M88.0638103,3.8536 C88.0638103,7.375 87.2267534,11.3004948 85.55265,15.6300793 C83.8208121,19.959669 81.136469,23.9428879 77.4996155,27.5797414 C74.3823103,30.6970466 71.2650103,32.7752448 68.1477052,33.8143466 C66.0117776,34.4493534 63.009931,34.9400397 59.1421655,35.2864052 C59.3153483,26.6849603 61.5667345,19.2669328 65.896319,13.0323276 C70.1681793,6.85545172 77.3841621,2.58359138 87.5442569,0.216746552 C87.6019862,0.389934483 87.6741466,0.707437931 87.7607379,1.1692569 C87.8473293,1.63108103 87.9194897,1.94858448 87.977219,2.12176724 C87.977219,2.35267931 87.99165,2.64131552 88.0205121,2.98768621 C88.0493741,3.33405172 88.0638103,3.6226931 88.0638103,3.8536 L88.0638103,3.8536 Z" id="Shape"></path>
            </g>
        </g>
    </g>
</svg>