<?xml version="1.0" encoding="UTF-8" standalone="no"?>
<svg width="140px" height="155px" viewBox="0 0 140 155" version="1.1" xmlns="http://www.w3.org/2000/svg" xmlns:xlink="http://www.w3.org/1999/xlink">
    <!-- Generator: Sketch 40.3 (33839) - http://www.bohemiancoding.com/sketch -->
    <title>Icon - Bluetooth</title>
    <desc>Created with Sketch.</desc>
    <defs></defs>
    <g id="Icons" stroke="none" stroke-width="1" fill="none" fill-rule="evenodd">
        <g id="Icon---Bluetooth" transform="translate(-10.000000, -3.000000)" fill="#000000">
            <path d="M86.6971138,113.413465 L72.2740369,98.6298092 L72.2740369,127.836542 L86.6971138,113.413465 Z M72.2740369,32.6442338 L72.2740369,61.85096 L86.6971138,47.0673108 L72.2740369,32.6442338 Z M108.331729,47.0673108 L75.1586523,80.2403815 L108.331729,113.413465 L64.3413477,157.043268 L56.7692308,157.043268 L56.7692308,98.6298092 L21.4326892,133.966345 L10.6153846,123.14904 L53.5240369,80.2403815 L10.6153846,37.3317292 L21.4326892,26.5144246 L56.7692308,61.85096 L56.7692308,3.43750154 L64.3413477,3.43750154 L108.331729,47.0673108 Z M137.89904,39.4951938 C145.35096,51.5144246 149.076923,64.8557662 149.076923,79.5192308 C149.076923,94.1826954 145.110578,107.764425 137.177883,120.264425 L128.163458,111.25 C133.211538,101.153846 135.735575,90.8173046 135.735575,80.2403815 C135.735575,69.6634585 133.211538,59.3269231 128.163458,49.2307692 L137.89904,39.4951938 Z M97.1538462,80.2403815 L114.822117,62.5721169 C117.225963,68.5817292 118.427883,74.4711508 118.427883,80.2403815 C118.427883,86.25 117.225963,92.2596185 114.822117,98.2692308 L97.1538462,80.2403815 Z"></path>
        </g>
    </g>
</svg>