<?xml version="1.0" encoding="UTF-8" standalone="no"?>
<svg width="150px" height="128px" viewBox="0 0 150 128" version="1.1" xmlns="http://www.w3.org/2000/svg" xmlns:xlink="http://www.w3.org/1999/xlink">
    <!-- Generator: Sketch 40.3 (33839) - http://www.bohemiancoding.com/sketch -->
    <title>Oval 2</title>
    <desc>Created with Sketch.</desc>
    <defs></defs>
    <g id="Icons" stroke="none" stroke-width="1" fill="none" fill-rule="evenodd">
        <g id="Icon---Range" transform="translate(-5.000000, -5.000000)" fill="#000000">
            <path d="M133.033009,133.033009 C162.32233,103.743687 162.32233,56.2563133 133.033009,26.9669914 C103.743687,-2.32233047 56.2563133,-2.32233047 26.9669914,26.9669914 C-2.32233047,56.2563133 -2.32233047,103.743687 26.9669914,133.033009 L38.2806999,121.7193 C15.2397667,98.6783669 15.2397667,61.3216331 38.2806999,38.2806999 C61.3216331,15.2397667 98.6783669,15.2397667 121.7193,38.2806999 C144.760233,61.3216331 144.760233,98.6783669 121.7193,121.7193 L133.033009,133.033009 L133.033009,133.033009 Z M115.355339,115.355339 C134.881554,95.8291245 134.881554,64.1708755 115.355339,44.6446609 C95.8291245,25.1184464 64.1708755,25.1184464 44.6446609,44.6446609 C25.1184464,64.1708755 25.1184464,95.8291245 44.6446609,115.355339 L55.9583694,104.041631 C42.6805435,90.7638046 42.6805435,69.2361954 55.9583694,55.9583694 C69.2361954,42.6805435 90.7638046,42.6805435 104.041631,55.9583694 C117.319456,69.2361954 117.319456,90.7638046 104.041631,104.041631 L115.355339,115.355339 L115.355339,115.355339 Z M97.6776695,97.6776695 C107.440777,87.9145622 107.440777,72.0854378 97.6776695,62.3223305 C87.9145622,52.5592232 72.0854378,52.5592232 62.3223305,62.3223305 C52.5592232,72.0854378 52.5592232,87.9145622 62.3223305,97.6776695 L73.636039,86.363961 C70.1213203,82.8492424 70.1213203,77.1507576 73.636039,73.636039 C77.1507576,70.1213203 82.8492424,70.1213203 86.363961,73.636039 C89.8786797,77.1507576 89.8786797,82.8492424 86.363961,86.363961 L97.6776695,97.6776695 L97.6776695,97.6776695 Z" id="Oval-2"></path>
        </g>
    </g>
</svg>