<?xml version="1.0" encoding="UTF-8" standalone="no"?>
<svg width="150px" height="128px" viewBox="0 0 150 128" version="1.1" xmlns="http://www.w3.org/2000/svg" xmlns:xlink="http://www.w3.org/1999/xlink">
    <!-- Generator: Sketch 40.3 (33839) - http://www.bohemiancoding.com/sketch -->
    <title>Oval 2</title>
    <desc>Created with Sketch.</desc>
    <defs></defs>
    <g id="Icons" stroke="none" stroke-width="1" fill="none" fill-rule="evenodd">
        <g id="Icon---Range-2" transform="translate(-5.000000, -5.000000)" fill="#000000">
            <path d="M133.033009,133.033009 C162.32233,103.743687 162.32233,56.2563133 133.033009,26.9669914 C103.743687,-2.32233047 56.2563133,-2.32233047 26.9669914,26.9669914 C-2.32233047,56.2563133 -2.32233047,103.743687 26.9669914,133.033009 L38.2806999,121.7193 C15.2397667,98.6783669 15.2397667,61.3216331 38.2806999,38.2806999 C61.3216331,15.2397667 98.6783669,15.2397667 121.7193,38.2806999 C144.760233,61.3216331 144.760233,98.6783669 121.7193,121.7193 L133.033009,133.033009 L133.033009,133.033009 Z M106.867749,106.867749 C121.160214,92.1968031 121.043132,68.7172306 106.516504,54.1906025 C91.8718434,39.5459415 68.1281566,39.5459415 53.4834957,54.1906025 C38.9568676,68.7172306 38.8397861,92.1968031 53.1322511,106.867749 L64.447681,95.552319 C56.4025951,87.131478 56.5191028,73.7824124 64.7972042,65.504311 C73.1934765,57.1080387 86.8065235,57.1080387 95.2027958,65.504311 C103.480897,73.7824124 103.597405,87.131478 95.552319,95.552319 L106.867749,106.867749 L106.867749,106.867749 Z" id="Oval-2"></path>
        </g>
    </g>
</svg>