<?xml version="1.0" encoding="UTF-8" standalone="no"?>
<svg width="150px" height="147px" viewBox="0 0 150 147" version="1.1" xmlns="http://www.w3.org/2000/svg" xmlns:xlink="http://www.w3.org/1999/xlink">
    <!-- Generator: Sketch 40.3 (33839) - http://www.bohemiancoding.com/sketch -->
    <title>volume up</title>
    <desc>Created with Sketch.</desc>
    <defs></defs>
    <g id="Icons" stroke="none" stroke-width="1" fill="none" fill-rule="evenodd">
        <g id="Icon---Speaker" transform="translate(-5.000000, -3.000000)" fill="#000000">
            <g id="volume-up" transform="translate(0.000000, 3.000000)">
                <path d="M96.7968733,0.859373333 C113.72396,4.50520667 127.656253,13.16406 138.593747,26.83594 C149.531253,40.5078133 155,56.19792 155,73.9062533 C155,91.6145867 149.531253,107.304687 138.593747,120.97656 C127.656253,134.64844 113.72396,143.307293 96.7968733,146.953127 L96.7968733,129.765627 C109.03646,126.119793 118.997393,119.218747 126.679687,109.0625 C134.36198,98.9062533 138.203127,87.1875 138.203127,73.9062533 C138.203127,60.625 134.36198,48.9062533 126.679687,38.75 C118.997393,28.5937467 109.03646,21.6927067 96.7968733,18.0468733 L96.7968733,0.859373333 Z M117.5,73.9062533 C117.5,89.5312533 110.59896,100.729167 96.7968733,107.5 L96.7968733,40.3125 C110.59896,47.0833333 117.5,58.2812533 117.5,73.9062533 L117.5,73.9062533 Z M5,48.9062533 L38.2031267,48.9062533 L80,7.10937333 L80,140.703127 L38.2031267,98.9062533 L5,98.9062533 L5,48.9062533 Z" id="Shape"></path>
            </g>
        </g>
    </g>
</svg>