<?xml version="1.0" encoding="UTF-8" standalone="no"?>
<svg width="150px" height="147px" viewBox="0 0 150 147" version="1.1" xmlns="http://www.w3.org/2000/svg" xmlns:xlink="http://www.w3.org/1999/xlink">
    <!-- Generator: Sketch 40.3 (33839) - http://www.bohemiancoding.com/sketch -->
    <title>volume up</title>
    <desc>Created with Sketch.</desc>
    <defs></defs>
    <g id="Icons" stroke="none" stroke-width="1" fill="none" fill-rule="evenodd">
        <g id="Icon---Speaker---Light" transform="translate(-5.000000, -3.000000)" fill="#FFFFFF">
            <g id="volume-up" transform="translate(5.000000, 3.000000)">
                <path d="M91.7968733,0.859373333 C108.72396,4.50520667 122.656253,13.16406 133.593747,26.83594 C144.531253,40.5078133 150,56.19792 150,73.9062533 C150,91.6145867 144.531253,107.304687 133.593747,120.97656 C122.656253,134.64844 108.72396,143.307293 91.7968733,146.953127 L91.7968733,129.765627 C104.03646,126.119793 113.997393,119.218747 121.679687,109.0625 C129.36198,98.9062533 133.203127,87.1875 133.203127,73.9062533 C133.203127,60.625 129.36198,48.9062533 121.679687,38.75 C113.997393,28.5937467 104.03646,21.6927067 91.7968733,18.0468733 L91.7968733,0.859373333 Z M112.5,73.9062533 C112.5,89.5312533 105.59896,100.729167 91.7968733,107.5 L91.7968733,40.3125 C105.59896,47.0833333 112.5,58.2812533 112.5,73.9062533 L112.5,73.9062533 Z M0,48.9062533 L33.2031267,48.9062533 L75,7.10937333 L75,140.703127 L33.2031267,98.9062533 L0,98.9062533 L0,48.9062533 Z" id="Shape"></path>
            </g>
        </g>
    </g>
</svg>