<?xml version="1.0" encoding="UTF-8" standalone="no"?>
<svg width="96px" height="143px" viewBox="0 0 96 143" version="1.1" xmlns="http://www.w3.org/2000/svg" xmlns:xlink="http://www.w3.org/1999/xlink">
    <!-- Generator: Sketch 40.3 (33839) - http://www.bohemiancoding.com/sketch -->
    <title>usb</title>
    <desc>Created with Sketch.</desc>
    <defs></defs>
    <g id="Icons" stroke="none" stroke-width="1" fill="none" fill-rule="evenodd">
        <g id="Icon---USB" transform="translate(-34.000000, -8.000000)" fill="#000000">
            <g id="usb" transform="translate(29.000000, 5.000000)">
                <path d="M73.6607143,43.8616071 L100.341798,43.8616071 L100.341798,70.8565821 L93.75,70.8565821 L93.75,84.0401786 C93.75,87.8069196 92.4421018,90.9981857 89.8263107,93.6139768 C87.2105196,96.2297732 84.0192536,97.5376661 80.2525125,97.5376661 L60.1632268,97.5376661 L60.1632268,117.940848 C65.604075,120.870536 68.3244964,125.265064 68.3244964,131.124439 C68.3244964,135.100446 66.9119679,138.553291 64.0869161,141.482979 C61.2618589,144.412666 57.7566964,145.877512 53.5714286,145.877512 C49.3861607,145.877512 45.8809982,144.412666 43.0559411,141.482979 C40.2308893,138.553291 38.8183607,135.100446 38.8183607,131.124439 C38.8183607,125.265064 41.5387821,120.870536 46.9796304,117.940848 L46.9796304,97.5376661 L26.8903446,97.5376661 C23.1236036,97.5376661 19.9323375,96.2297732 17.3165464,93.6139768 C14.7007554,90.9981857 13.3928571,87.8069196 13.3928571,84.0401786 L13.3928571,70.2287946 C7.95200893,67.2991071 5.23158214,63.0092089 5.23158214,57.3590946 C5.23158214,53.1738268 6.69642857,49.6686643 9.62611607,46.8436125 C12.5558036,44.0185554 16.0086482,42.6060268 19.9846554,42.6060268 C23.9606571,42.6060268 27.4135071,44.0185554 30.3431893,46.8436125 C33.2728821,49.6686643 34.7377232,53.1738268 34.7377232,57.3590946 C34.7377232,63.2184696 32.1219321,67.5083679 26.8903446,70.2287946 L26.8903446,84.0401786 L46.9796304,84.0401786 L46.9796304,30.6780107 L33.4821429,30.6780107 L53.5714286,3.68303571 L73.6607143,30.6780107 L60.1632268,30.6780107 L60.1632268,84.0401786 L80.2525125,84.0401786 L80.2525125,70.8565821 L73.6607143,70.8565821 L73.6607143,43.8616071 Z" id="Shape"></path>
            </g>
        </g>
    </g>
</svg>