<?xml version="1.0" encoding="UTF-8" standalone="no"?>
<svg width="96px" height="143px" viewBox="0 0 96 143" version="1.1" xmlns="http://www.w3.org/2000/svg" xmlns:xlink="http://www.w3.org/1999/xlink">
    <!-- Generator: Sketch 40.3 (33839) - http://www.bohemiancoding.com/sketch -->
    <title>usb</title>
    <desc>Created with Sketch.</desc>
    <defs></defs>
    <g id="Icons" stroke="none" stroke-width="1" fill="none" fill-rule="evenodd">
        <g id="Icon---USB---Light" transform="translate(-34.000000, -8.000000)" fill="#FFFFFF">
            <g id="usb" transform="translate(34.000000, 8.000000)">
                <path d="M68.6607143,40.8616071 L95.3417982,40.8616071 L95.3417982,67.8565821 L88.75,67.8565821 L88.75,81.0401786 C88.75,84.8069196 87.4421018,87.9981857 84.8263107,90.6139768 C82.2105196,93.2297732 79.0192536,94.5376661 75.2525125,94.5376661 L55.1632268,94.5376661 L55.1632268,114.940848 C60.604075,117.870536 63.3244964,122.265064 63.3244964,128.124439 C63.3244964,132.100446 61.9119679,135.553291 59.0869161,138.482979 C56.2618589,141.412666 52.7566964,142.877512 48.5714286,142.877512 C44.3861607,142.877512 40.8809982,141.412666 38.0559411,138.482979 C35.2308893,135.553291 33.8183607,132.100446 33.8183607,128.124439 C33.8183607,122.265064 36.5387821,117.870536 41.9796304,114.940848 L41.9796304,94.5376661 L21.8903446,94.5376661 C18.1236036,94.5376661 14.9323375,93.2297732 12.3165464,90.6139768 C9.70075536,87.9981857 8.39285714,84.8069196 8.39285714,81.0401786 L8.39285714,67.2287946 C2.95200893,64.2991071 0.231582143,60.0092089 0.231582143,54.3590946 C0.231582143,50.1738268 1.69642857,46.6686643 4.62611607,43.8436125 C7.55580357,41.0185554 11.0086482,39.6060268 14.9846554,39.6060268 C18.9606571,39.6060268 22.4135071,41.0185554 25.3431893,43.8436125 C28.2728821,46.6686643 29.7377232,50.1738268 29.7377232,54.3590946 C29.7377232,60.2184696 27.1219321,64.5083679 21.8903446,67.2287946 L21.8903446,81.0401786 L41.9796304,81.0401786 L41.9796304,27.6780107 L28.4821429,27.6780107 L48.5714286,0.683035714 L68.6607143,27.6780107 L55.1632268,27.6780107 L55.1632268,81.0401786 L75.2525125,81.0401786 L75.2525125,67.8565821 L68.6607143,67.8565821 L68.6607143,40.8616071 Z" id="Shape"></path>
            </g>
        </g>
    </g>
</svg>