<?xml version="1.0" encoding="UTF-8" standalone="no"?>
<svg width="22px" height="28px" viewBox="0 0 22 28" version="1.1" xmlns="http://www.w3.org/2000/svg" xmlns:xlink="http://www.w3.org/1999/xlink">
    <!-- Generator: Sketch 40.3 (33839) - http://www.bohemiancoding.com/sketch -->
    <title>Icon - Arrow Down</title>
    <desc>Created with Sketch.</desc>
    <defs></defs>
    <g id="Page---Main-Page" stroke="none" stroke-width="1" fill="none" fill-rule="evenodd">
        <g id="Main-Page---1280" transform="translate(-629.000000, -652.000000)" fill="#FFFFFF">
            <g id="Cover">
                <path d="M638.624903,674.805928 L631.346971,667.527996 C630.81003,666.991055 629.939648,666.991055 629.402706,667.527996 C628.865765,668.064938 628.865765,668.935664 629.402706,669.472605 L639.027781,679.09768 C639.564723,679.634622 640.435449,679.634622 640.972047,679.09768 L650.597122,669.472605 C650.865593,669.204134 651,668.852132 651,668.500129 C651,668.14847 650.865593,667.796467 650.597122,667.527996 C650.06018,666.991055 649.189455,666.991055 648.652857,667.527996 L641.374925,674.805928 L641.374925,653.375011 C641.374925,652.616005 640.759264,652 639.999914,652 C639.240564,652 638.624903,652.615661 638.624903,653.375011 L638.624903,674.805928 Z" id="Icon---Arrow-Down"></path>
            </g>
        </g>
    </g>
</svg>