<?xml version="1.0" encoding="UTF-8" standalone="no"?>
<svg width="16px" height="16px" viewBox="0 0 16 16" version="1.1" xmlns="http://www.w3.org/2000/svg" xmlns:xlink="http://www.w3.org/1999/xlink">
    <!-- Generator: Sketch 40.3 (33839) - http://www.bohemiancoding.com/sketch -->
    <title>Icon - Info</title>
    <desc>Created with Sketch.</desc>
    <defs></defs>
    <g id="Page-1" stroke="none" stroke-width="1" fill="none" fill-rule="evenodd">
        <path d="M8.78873254,5.59624354 L8.78873254,3.98122026 L7.21126746,3.98122026 L7.21126746,5.59624354 L8.78873254,5.59624354 Z M8.78873254,12.0187791 L8.78873254,7.21126746 L7.21126746,7.21126746 L7.21126746,12.0187791 L8.78873254,12.0187791 Z M8,0 C10.2034428,0 12.0876368,0.782472518 13.6525818,2.34741755 C15.2175275,3.91236259 16,5.79655652 16,7.99999936 C16,10.2034422 15.2175275,12.0876368 13.6525818,13.6525818 C12.0876368,15.2175268 10.2034428,15.9999994 8,15.9999994 C5.79655716,15.9999994 3.91236323,15.2175268 2.34741819,13.6525818 C0.782472518,12.0876368 0,10.2034422 0,7.99999936 C0,5.79655652 0.782472518,3.91236259 2.34741819,2.34741755 C3.91236323,0.782472518 5.79655716,0 8,0 L8,0 Z" id="Icon---Info" fill="#000000"></path>
    </g>
</svg>