<?xml version="1.0" encoding="UTF-8" standalone="no"?>
<svg width="159px" height="32px" viewBox="0 0 159 32" version="1.1" xmlns="http://www.w3.org/2000/svg" xmlns:xlink="http://www.w3.org/1999/xlink">
    <!-- Generator: Sketch 40.3 (33839) - http://www.bohemiancoding.com/sketch -->
    <title>Stoned Logo / White B</title>
    <desc>Created with Sketch.</desc>
    <defs></defs>
    <g id="Page---Main-Page" stroke="none" stroke-width="1" fill="none" fill-rule="evenodd">
        <g id="Main-Page---1280" transform="translate(-49.000000, -44.000000)" fill="#FFFFFF">
            <g id="Header">
                <g id="Header-A">
                    <g id="Stoned-Logo-/-C-/-White" transform="translate(48.000000, 44.000000)">
                        <path d="M196.084895,6.18770404 C194.252529,4.68378085 192.110425,3.58222082 189.679611,2.88527406 C187.343459,2.21546824 184.850587,1.88235399 182.206553,1.88235399 L173.686101,1.88235399 L172.975549,1.88235399 L170.795469,1.88235399 L170.795469,4.06243393 L170.795469,4.63346657 L170.795469,35.6611117 L170.795469,36.0244584 L170.795469,38.2045383 L172.975549,38.2045383 L173.338895,38.2045383 L182.206553,38.2045383 C184.856056,38.2045383 187.35436,37.8625552 189.695365,37.1749873 C192.120239,36.4627866 194.256764,35.3555184 196.084895,33.8550706 C197.950792,32.3236272 199.410313,30.3899024 200.451468,28.0820079 C201.490927,25.7778745 202,23.0940231 202,20.0434462 C202,16.9948234 201.491575,14.3057062 200.454389,11.9893232 C199.413461,9.66458434 197.953148,7.72108086 196.084895,6.18770404 Z M181.985964,7.85156117 C184.054938,7.85156117 185.981026,8.10121941 187.769398,8.59726406 C189.455147,9.06484406 190.883616,9.78173189 192.076267,10.7477789 C193.235203,11.6865175 194.156227,12.8995416 194.848878,14.416208 C195.570928,15.9972491 195.89844,17.6692484 195.89844,20.0434462 C195.89844,22.415755 195.57168,24.0783736 194.852053,25.6417012 C194.159625,27.1459405 193.237762,28.3541849 192.076267,29.2949957 C190.879124,30.2646812 189.444775,30.9905766 187.752833,31.4722244 C185.969594,31.9798617 184.049206,32.2353311 181.985964,32.2353311 L174.716949,32.2353311 L172.536869,32.2353311 L172.536869,34.4154111 L172.536869,34.7787577 L174.716949,34.7787577 L176.897029,34.7787577 L176.897029,5.36015988 L174.716949,5.36015988 L172.536869,5.36015988 L172.536869,5.67148123 L172.536869,7.85156117 L174.716949,7.85156117 L181.985964,7.85156117 Z M144.552097,38.2045383 L163.434472,38.2045383 L163.797819,38.2045383 L165.977898,38.2045383 L165.977898,36.0244584 L165.977898,35.6611117 L165.977898,34.7787577 L165.977898,34.4154111 L165.977898,32.2353311 L163.797819,32.2353311 L163.434472,32.2353311 L145.841915,32.2353311 L143.661835,32.2353311 L143.661835,34.4154111 L143.661835,34.7787577 L148.021995,34.7787577 L148.021995,19.9110931 L143.661835,19.9110931 L143.661835,20.2744397 L143.661835,22.4545197 L145.841915,22.4545197 L161.713882,22.4545197 L162.077228,22.4545197 L164.257308,22.4545197 L164.257308,20.2744397 L164.257308,19.9110931 L164.257308,19.0287391 L164.257308,18.6653924 L164.257308,16.4853125 L162.077228,16.4853125 L161.713882,16.4853125 L145.841915,16.4853125 L143.661835,16.4853125 L143.661835,18.6653924 L143.661835,19.0287391 L148.021995,19.0287391 L148.021995,5.30813457 L143.661835,5.30813457 L143.661835,5.67148123 L143.661835,7.85156117 L145.841915,7.85156117 L162.728589,7.85156117 L163.091935,7.85156117 L165.272015,7.85156117 L165.272015,5.67148123 L165.272015,5.30813457 L165.272015,4.42578058 L165.272015,4.06243393 L165.272015,1.88235399 L163.091935,1.88235399 L162.728589,1.88235399 L144.552097,1.88235399 L144.18875,1.88235399 L142.00867,1.88235399 L142.00867,4.06243393 L142.00867,4.42578058 L142.00867,35.6611117 L142.00867,36.0244584 L142.00867,38.2045383 L144.18875,38.2045383 L144.552097,38.2045383 Z M131.030022,38.2045383 L132.441788,38.2045383 L132.805135,38.2045383 L134.985215,38.2045383 L134.985215,36.0244584 L134.985215,35.6611117 L134.985215,4.42578058 L134.985215,4.06243393 L134.985215,1.88235399 L132.805135,1.88235399 L132.441788,1.88235399 L131.471199,1.88235399 L131.107852,1.88235399 L128.927772,1.88235399 L128.927772,4.06243393 L128.927772,4.42578058 L128.927772,34.3816984 L128.927772,36.5617784 L131.107852,36.5617784 L131.471199,36.5617784 L131.471199,32.2016185 L131.338846,32.2016185 L131.338846,34.3816984 L133.095765,33.0909695 L110.821583,2.77170498 L110.168218,1.88235399 L109.064663,1.88235399 L108.882937,1.88235399 L107.515288,1.88235399 L107.151941,1.88235399 L104.971861,1.88235399 L104.971861,4.06243393 L104.971861,4.42578058 L104.971861,35.6611117 L104.971861,36.0244584 L104.971861,38.2045383 L107.151941,38.2045383 L107.515288,38.2045383 L108.485877,38.2045383 L108.849224,38.2045383 L111.029304,38.2045383 L111.029304,36.0244584 L111.029304,35.6611117 L111.029304,6.08685319 L111.029304,5.53357182 L110.765464,5.04725033 L110.53447,4.6214733 L108.61823,5.66107617 L106.859127,6.94882721 L128.97983,37.1663225 L129.101394,37.3292164 L129.75531,38.2045383 L130.84792,38.2045383 L131.030022,38.2045383 Z M59.2010986,14.3765645 L58.3299435,15.7672936 L59.4254169,16.9891678 L78.3194431,38.0632739 L79.942664,39.8737895 L81.5658849,38.0632739 L100.459911,16.9891678 L101.601228,15.7161602 L100.636951,14.3043095 L92.7135545,2.70323509 L92.0643584,1.7527119 L90.9132938,1.7527119 L68.3155709,1.7527119 L67.1087017,1.7527119 L66.4680317,2.77549007 L59.2010986,14.3765645 Z M95.2252871,16.8624062 L95.3964734,14.1696942 L78.497069,33.0258718 L81.7288664,33.0091214 L64.4736851,14.1529439 L64.7176546,16.7743961 L71.1216394,6.45686502 L69.2693559,7.48725177 L89.9044181,7.48725177 L88.1097484,6.54487505 L95.2252871,16.8624062 Z M55.5670944,7.85156117 L55.9304411,7.85156117 L58.110521,7.85156117 L58.110521,5.67148123 L58.110521,5.30813457 L58.110521,4.42578058 L58.110521,4.06243393 L58.110521,1.88235399 L55.9304411,1.88235399 L55.5670944,1.88235399 L33.3317739,1.88235399 L32.9684273,1.88235399 L30.7883473,1.88235399 L30.7883473,4.06243393 L30.7883473,4.42578058 L30.7883473,5.30813457 L30.7883473,5.67148123 L30.7883473,7.85156117 L32.9684273,7.85156117 L33.3317739,7.85156117 L43.9641395,7.85156117 L43.9641395,5.67148123 L43.9641395,3.49140129 L43.6007928,3.49140129 L41.4207129,3.49140129 L41.4207129,5.67148123 L41.4207129,35.6611117 L41.4207129,36.0244584 L41.4207129,38.2045383 L43.6007928,38.2045383 L43.9641395,38.2045383 L44.9347289,38.2045383 L45.2980755,38.2045383 L47.4781555,38.2045383 L47.4781555,36.0244584 L47.4781555,35.6611117 L47.4781555,5.67148123 L47.4781555,3.49140129 L45.2980755,3.49140129 L44.9347289,3.49140129 L44.9347289,5.67148123 L44.9347289,7.85156117 L55.5670944,7.85156117 Z M23.1660997,20.3869213 C22.1142014,19.6024547 20.9115488,18.9437956 19.5628941,18.4077918 C18.3699777,17.933684 17.089812,17.4688522 15.7219315,17.012892 C14.8071106,16.7079517 13.9139511,16.3756156 13.0423236,16.0158963 C12.3351674,15.7240541 11.7128282,15.3606665 11.1682537,14.925007 C10.7067883,14.5558347 10.3437225,14.1155937 10.0654043,13.5867892 C9.82926691,13.1381282 9.69634087,12.5183026 9.69634087,11.705201 C9.69634087,10.88159 9.84808417,10.227166 10.1330232,9.70757138 C10.4548745,9.12066605 10.8688269,8.64683858 11.3907125,8.26474376 C11.9723205,7.83892361 12.6222727,7.52182605 13.3536478,7.30983328 C14.1381281,7.08244767 14.9364964,6.96920718 15.7558656,6.96920718 C16.9027604,6.96920718 17.9378618,7.18258324 18.8845846,7.60697621 C19.8003387,8.01748666 20.5262454,8.57051149 21.0933212,9.27935633 L21.3315241,9.57710995 L22.7607415,11.3636317 L24.4762686,9.84993128 L24.7621898,9.59764788 L25.5121907,8.93588239 L25.7743009,8.70460872 L27.3469618,7.31696673 L26.0211805,5.69181546 L25.8002169,5.42095691 C24.6219575,3.97663891 23.1147325,2.86695485 21.3122803,2.10509362 C19.5706549,1.36894269 17.7264994,1 15.7999833,1 C14.2488645,1 12.762215,1.22270543 11.348781,1.66999467 C9.90197615,2.12784432 8.6081658,2.79835539 7.48154088,3.68087825 C6.3054454,4.60215303 5.36845783,5.7461317 4.6860875,7.09137608 C3.98487536,8.47376573 3.63889829,10.0219001 3.63889829,11.705201 C3.63889829,13.3783637 3.92145361,14.8616124 4.51163129,16.1437225 C5.09317301,17.4070718 5.92287438,18.4998725 6.98467311,19.4013998 C7.96601958,20.2346185 9.11248394,20.9265197 10.4161139,21.480116 C11.565327,21.968138 12.8231624,22.4291177 14.1905708,22.8642022 C15.1729255,23.1729589 16.1402056,23.5139329 17.1011042,23.8899367 C17.9110581,24.2068752 18.6179422,24.5917831 19.2272481,25.0431207 C19.75807,25.4363222 20.180381,25.8969364 20.5082551,26.4369644 C20.7515444,26.8376761 20.8889187,27.3990284 20.8889187,28.1611028 C20.8889187,28.9906334 20.7433609,29.6738629 20.4664124,30.2366937 C20.1756128,30.8276737 19.7883532,31.3106885 19.2891502,31.708202 C18.734885,32.1495613 18.0912242,32.4919985 17.3442824,32.7374222 C16.574627,32.990309 15.7543234,33.1176851 14.8735117,33.1176851 C13.6139307,33.1176851 12.4019705,32.8799061 11.2198736,32.400045 C10.0819287,31.938107 9.09009331,31.2487586 8.22422181,30.3145289 L7.98320084,30.0544799 L6.53707504,28.4941863 L4.9418761,29.9017148 L4.67600961,30.1363028 L3.92600873,30.7980683 L3.65086462,31.0408425 L2,32.4974878 L3.47281202,34.1339456 L3.71828069,34.4066886 C5.02818223,35.8621347 6.66167246,37.0088895 8.59437215,37.8422554 C10.5234702,38.6740683 12.6378511,39.0868923 14.9176294,39.0868923 C16.4405873,39.0868923 17.9126236,38.8637617 19.324714,38.4168976 C20.8008914,37.9497529 22.1059427,37.2443943 23.2208065,36.3025266 C24.3436308,35.3539337 25.2441404,34.1923175 25.9121748,32.837162 C26.6046743,31.4323772 26.9463613,29.8642911 26.9463613,28.1611028 C26.9463613,26.4447975 26.6154576,24.9182734 25.9280402,23.6059311 C25.2645771,22.3393198 24.3368615,21.2600318 23.1660997,20.3869213 Z" id="Stoned-Logo---Logotype"></path>
                    </g>
                </g>
            </g>
        </g>
    </g>
</svg>